<svg width="12" height="8" viewBox="0 0 12 8" fill="none" xmlns="http://www.w3.org/2000/svg">
<path d="M11.4261 0.292854C11.3571 0.201895 11.2679 0.128143 11.1657 0.0773664C11.0634 0.0265901 10.9508 0.000167847 10.8366 0.000167847C10.7224 0.000167847 10.6098 0.0265901 10.5075 0.0773664C10.4052 0.128143 10.3161 0.201895 10.2471 0.292854L6.42408 4.87885C6.35356 4.96758 6.26393 5.03925 6.16186 5.0885C6.05978 5.13776 5.94791 5.16335 5.83458 5.16335C5.72124 5.16335 5.60937 5.13776 5.5073 5.0885C5.40523 5.03925 5.31559 4.96758 5.24508 4.87885L1.42308 0.292854C1.35418 0.201718 1.26509 0.127797 1.1628 0.0768991C1.06052 0.026001 0.947824 -0.000488281 0.833576 -0.000488281C0.719327 -0.000488281 0.606634 0.026001 0.504349 0.0768991C0.402065 0.127797 0.312974 0.201718 0.244076 0.292854C0.0859377 0.494592 0 0.743522 0 0.999854C0 1.25618 0.0859377 1.50512 0.244076 1.70685L4.06608 6.29285C4.27301 6.56591 4.54037 6.78733 4.84719 6.93978C5.15401 7.09223 5.49197 7.17157 5.83458 7.17157C6.17719 7.17157 6.51514 7.09223 6.82196 6.93978C7.12878 6.78733 7.39614 6.56591 7.60308 6.29285L11.4261 1.70685C11.5842 1.50512 11.6702 1.25618 11.6702 0.999854C11.6702 0.743522 11.5842 0.494592 11.4261 0.292854Z" fill="#A6A6A6"/>
</svg>
