<svg width="12" height="8" viewBox="0 0 12 8" fill="none" xmlns="http://www.w3.org/2000/svg">
<path d="M11.426 0.292976C11.3569 0.202017 11.2678 0.128265 11.1655 0.0774884C11.0633 0.0267121 10.9506 0.000289917 10.8365 0.000289917C10.7223 0.000289917 10.6096 0.0267121 10.5074 0.0774884C10.4051 0.128265 10.316 0.202017 10.247 0.292976L6.42395 4.87898C6.35344 4.9677 6.2638 5.03937 6.16173 5.08863C6.05966 5.13789 5.94779 5.16347 5.83445 5.16347C5.72112 5.16347 5.60925 5.13789 5.50717 5.08863C5.4051 5.03937 5.31547 4.9677 5.24495 4.87898L1.42295 0.292976C1.35406 0.20184 1.26496 0.127919 1.16268 0.0770211C1.0604 0.026123 0.947702 -0.000366211 0.833454 -0.000366211C0.719205 -0.000366211 0.606512 0.026123 0.504227 0.0770211C0.401942 0.127919 0.312852 0.20184 0.243954 0.292976C0.0858156 0.494714 -0.00012207 0.743644 -0.00012207 0.999976C-0.00012207 1.25631 0.0858156 1.50524 0.243954 1.70698L4.06595 6.29298C4.27289 6.56603 4.54025 6.78746 4.84707 6.93991C5.15389 7.09236 5.49185 7.17169 5.83445 7.17169C6.17706 7.17169 6.51502 7.09236 6.82184 6.93991C7.12866 6.78746 7.39602 6.56603 7.60295 6.29298L11.426 1.70698C11.5841 1.50524 11.67 1.25631 11.67 0.999976C11.67 0.743644 11.5841 0.494714 11.426 0.292976Z" fill="#A6A6A6"/>
</svg>
